<svg xmlns="http://www.w3.org/2000/svg" xmlns:xlink="http://www.w3.org/1999/xlink" width="500" zoomAndPan="magnify" viewBox="0 0 375 374.999991" height="500" preserveAspectRatio="xMidYMid meet" version="1.0"><defs><filter x="0%" y="0%" width="100%" height="100%" id="df97b80785"><feColorMatrix values="0 0 0 0 1 0 0 0 0 1 0 0 0 0 1 0 0 0 1 0" color-interpolation-filters="sRGB"/></filter><g/><clipPath id="be5732a8ed"><path d="M 187.5 0 C 83.945312 0 0 83.945312 0 187.5 C 0 291.054688 83.945312 375 187.5 375 C 291.054688 375 375 291.054688 375 187.5 C 375 83.945312 291.054688 0 187.5 0 Z M 187.5 0 " clip-rule="nonzero"/></clipPath><clipPath id="29e910218f"><path d="M 193.664062 207 L 321.164062 207 L 321.164062 315 L 193.664062 315 Z M 193.664062 207 " clip-rule="nonzero"/></clipPath><mask id="11178371c1"><g filter="url(#df97b80785)"><rect x="-37.5" width="450" fill="#000000" y="-37.499999" height="449.999989" fill-opacity="0.1"/></g></mask><clipPath id="ff0a618e03"><rect x="0" width="8" y="0" height="13"/></clipPath><mask id="8eaa9d0dc4"><g filter="url(#df97b80785)"><rect x="-37.5" width="450" fill="#000000" y="-37.499999" height="449.999989" fill-opacity="0.1"/></g></mask><clipPath id="b6ee904a64"><path d="M 0.558594 1 L 8 1 L 8 10 L 0.558594 10 Z M 0.558594 1 " clip-rule="nonzero"/></clipPath><clipPath id="fbd760ad2e"><rect x="0" width="9" y="0" height="13"/></clipPath><mask id="9830c2425a"><g filter="url(#df97b80785)"><rect x="-37.5" width="450" fill="#000000" y="-37.499999" height="449.999989" fill-opacity="0.1"/></g></mask><clipPath id="c798925ed6"><rect x="0" width="10" y="0" height="27"/></clipPath></defs><g clip-path="url(#be5732a8ed)"><rect x="-37.5" width="450" fill="#edede9" y="-37.499999" height="449.999989" fill-opacity="1"/></g><g fill="#2f3e46" fill-opacity="1"><g transform="translate(41.210876, 160.949776)"><g><path d="M 62.28125 -39.71875 L 78.71875 0 L 60.359375 0 L 45.84375 -36.59375 L 25.4375 -36.59375 L 25.4375 0 L 8.15625 0 L 8.15625 -91.5625 L 47.640625 -91.5625 C 53.398438 -91.5625 58.457031 -90.617188 62.8125 -88.734375 C 67.175781 -86.859375 70.578125 -83.941406 73.015625 -79.984375 C 75.460938 -76.023438 76.6875 -70.882812 76.6875 -64.5625 C 76.6875 -58.5625 75.40625 -53.441406 72.84375 -49.203125 C 70.28125 -44.960938 66.757812 -41.800781 62.28125 -39.71875 Z M 45.234375 -76.078125 L 25.4375 -76.078125 L 25.4375 -51.71875 L 45.234375 -51.71875 C 49.878906 -51.71875 53.421875 -52.753906 55.859375 -54.828125 C 58.296875 -56.910156 59.515625 -59.953125 59.515625 -63.953125 C 59.515625 -67.878906 58.273438 -70.878906 55.796875 -72.953125 C 53.316406 -75.035156 49.796875 -76.078125 45.234375 -76.078125 Z M 45.234375 -76.078125 "/></g></g></g><g fill="#2f3e46" fill-opacity="1"><g transform="translate(123.890921, 160.949776)"><g><path d="M 49.078125 1.6875 C 41.554688 1.6875 34.992188 0.40625 29.390625 -2.15625 C 23.796875 -4.71875 19.175781 -8.195312 15.53125 -12.59375 C 11.894531 -17 9.175781 -22.0625 7.375 -27.78125 C 5.582031 -33.5 4.6875 -39.519531 4.6875 -45.84375 C 4.6875 -52.15625 5.582031 -58.171875 7.375 -63.890625 C 9.175781 -69.617188 11.894531 -74.679688 15.53125 -79.078125 C 19.175781 -83.484375 23.796875 -86.941406 29.390625 -89.453125 C 34.992188 -91.972656 41.554688 -93.234375 49.078125 -93.234375 C 56.679688 -93.234375 63.28125 -91.972656 68.875 -89.453125 C 74.476562 -86.941406 79.097656 -83.484375 82.734375 -79.078125 C 86.378906 -74.679688 89.097656 -69.617188 90.890625 -63.890625 C 92.691406 -58.171875 93.59375 -52.15625 93.59375 -45.84375 C 93.59375 -39.519531 92.691406 -33.5 90.890625 -27.78125 C 89.097656 -22.0625 86.378906 -17 82.734375 -12.59375 C 79.097656 -8.195312 74.476562 -4.71875 68.875 -2.15625 C 63.28125 0.40625 56.679688 1.6875 49.078125 1.6875 Z M 49.078125 -13.796875 C 54.753906 -13.796875 59.550781 -15.132812 63.46875 -17.8125 C 67.394531 -20.5 70.394531 -24.257812 72.46875 -29.09375 C 74.550781 -33.9375 75.59375 -39.519531 75.59375 -45.84375 C 75.59375 -52.15625 74.550781 -57.691406 72.46875 -62.453125 C 70.394531 -67.210938 67.394531 -70.929688 63.46875 -73.609375 C 59.550781 -76.296875 54.753906 -77.640625 49.078125 -77.640625 C 43.554688 -77.640625 38.816406 -76.296875 34.859375 -73.609375 C 30.898438 -70.929688 27.878906 -67.210938 25.796875 -62.453125 C 23.722656 -57.691406 22.6875 -52.15625 22.6875 -45.84375 C 22.6875 -39.519531 23.722656 -33.9375 25.796875 -29.09375 C 27.878906 -24.257812 30.898438 -20.5 34.859375 -17.8125 C 38.816406 -15.132812 43.554688 -13.796875 49.078125 -13.796875 Z M 49.078125 -13.796875 "/></g></g></g><g fill="#2f3e46" fill-opacity="1"><g transform="translate(222.290969, 160.949776)"><g><path d="M 25.4375 0 L 8.15625 0 L 8.15625 -91.5625 L 36.71875 -91.5625 L 55.6875 -20.875 L 74.515625 -91.5625 L 103.3125 -91.5625 L 103.3125 0 L 86.046875 0 L 86.046875 -78.59375 L 64.203125 0 L 47.28125 0 L 25.4375 -78.125 Z M 25.4375 0 "/></g></g></g><g clip-path="url(#29e910218f)"><path fill="#2f3e46" d="M 377.683594 259.355469 C 378.632812 300.019531 334.257812 328.578125 295.308594 306.261719 C 282.476562 298.90625 271.585938 288.015625 259.875 276.121094 C 259.339844 275.582031 259.09375 275.636719 258.597656 276.140625 C 240.277344 294.605469 213.753906 322.765625 176.601562 311.808594 C 160.964844 307.199219 150.097656 297.054688 144.53125 281.769531 C 125.902344 230.609375 179.34375 188.25 225.167969 216.332031 C 236.726562 223.414062 246.707031 233.183594 258.503906 245.203125 C 259.136719 245.84375 259.417969 245.75 259.996094 245.171875 C 273.398438 231.652344 287.828125 216.960938 305.648438 210.8125 C 341.914062 198.292969 376.683594 219.90625 377.683594 259.355469 Z M 354.988281 260.140625 C 353.832031 236.652344 335.765625 225.703125 316.511719 229.867188 C 299.875 233.464844 285.917969 248.097656 274.03125 260.316406 C 273.628906 260.730469 273.855469 260.894531 274.128906 261.152344 C 284.457031 270.792969 294.539062 282.5625 307.246094 288.621094 C 331.875 300.363281 355.070312 283.144531 354.988281 260.140625 Z M 163.492188 261.136719 C 164.222656 283.835938 182.132812 296.207031 202.769531 291.367188 C 219.007812 287.558594 232.882812 272.992188 244.410156 261.148438 C 244.808594 260.738281 244.65625 260.546875 244.328125 260.242188 C 229.914062 246.789062 212.90625 225.550781 189.925781 229.421875 C 174.617188 232 163.457031 245.335938 163.492188 261.136719 Z M 163.492188 261.136719 " fill-opacity="1" fill-rule="nonzero"/></g><g fill="#52796f" fill-opacity="1"><g transform="translate(53.630531, 314.149959)"><g><path d="M 22.125 0 L 0.984375 0 L 38.640625 -106.8125 L 60.765625 -106.8125 L 98.421875 0 L 77.28125 0 L 70 -21.984375 L 29.265625 -21.984375 Z M 49.703125 -84.84375 L 35 -39.625 L 64.40625 -39.625 Z M 49.703125 -84.84375 "/></g></g></g><g fill="#52796f" fill-opacity="1"><g transform="translate(153.024968, 314.149959)"><g><path d="M 29.6875 0 L 9.515625 0 L 9.515625 -106.8125 L 29.6875 -106.8125 Z M 29.6875 0 "/></g></g></g><g mask="url(#11178371c1)"><g transform="matrix(1, 0, 0, 1, 235, 147)"><g clip-path="url(#ff0a618e03)"><g fill="#2b1806" fill-opacity="1"><g transform="translate(0.960111, 9.350439)"><g><path d="M 1.484375 0 L 0.796875 0 L 0.796875 -7.625 L 3.4375 -7.625 C 4.164062 -7.625 4.75 -7.441406 5.1875 -7.078125 C 5.625 -6.722656 5.84375 -6.191406 5.84375 -5.484375 C 5.84375 -4.796875 5.625 -4.257812 5.1875 -3.875 C 4.757812 -3.5 4.175781 -3.3125 3.4375 -3.3125 L 1.484375 -3.3125 Z M 1.484375 -7.015625 L 1.484375 -3.921875 L 3.34375 -3.921875 C 3.9375 -3.921875 4.390625 -4.050781 4.703125 -4.3125 C 5.015625 -4.582031 5.171875 -4.960938 5.171875 -5.453125 C 5.171875 -5.953125 5.007812 -6.335938 4.6875 -6.609375 C 4.363281 -6.878906 3.914062 -7.015625 3.34375 -7.015625 Z M 1.484375 -7.015625 "/></g></g></g></g></g></g><g mask="url(#8eaa9d0dc4)"><g transform="matrix(1, 0, 0, 1, 274, 147)"><g clip-path="url(#fbd760ad2e)"><g clip-path="url(#b6ee904a64)"><g fill="#000000" fill-opacity="1"><g transform="translate(0.668971, 9.350439)"><g><path d="M 0.875 0 L 0.15625 0 L 3.046875 -7.625 L 3.84375 -7.625 L 6.71875 0 L 6.015625 0 L 5.234375 -2.0625 L 1.640625 -2.0625 Z M 3.4375 -6.921875 L 1.859375 -2.6875 L 5.015625 -2.6875 Z M 3.4375 -6.921875 "/></g></g></g></g></g></g></g><g mask="url(#9830c2425a)"><g transform="matrix(1, 0, 0, 1, 312, 133)"><g clip-path="url(#c798925ed6)"><g fill="#2b1806" fill-opacity="1"><g transform="translate(1.682943, 9.85044)"><g><path d="M 1.484375 0 L 0.796875 0 L 0.796875 -7.625 L 3.4375 -7.625 C 4.164062 -7.625 4.75 -7.441406 5.1875 -7.078125 C 5.625 -6.722656 5.84375 -6.191406 5.84375 -5.484375 C 5.84375 -4.796875 5.625 -4.257812 5.1875 -3.875 C 4.757812 -3.5 4.175781 -3.3125 3.4375 -3.3125 L 1.484375 -3.3125 Z M 1.484375 -7.015625 L 1.484375 -3.921875 L 3.34375 -3.921875 C 3.9375 -3.921875 4.390625 -4.050781 4.703125 -4.3125 C 5.015625 -4.582031 5.171875 -4.960938 5.171875 -5.453125 C 5.171875 -5.953125 5.007812 -6.335938 4.6875 -6.609375 C 4.363281 -6.878906 3.914062 -7.015625 3.34375 -7.015625 Z M 1.484375 -7.015625 "/></g></g></g><g fill="#2b1806" fill-opacity="1"><g transform="translate(0.405599, 23.350439)"><g><path d="M 1.484375 0 L 0.796875 0 L 0.796875 -7.625 L 1.90625 -7.625 L 4.375 -0.703125 L 6.859375 -7.625 L 7.96875 -7.625 L 7.96875 0 L 7.28125 0 L 7.28125 -6.90625 L 4.8125 0 L 3.953125 0 L 1.484375 -6.921875 Z M 1.484375 0 "/></g></g></g></g></g></g></svg>